<svg width="282" height="47" fill="none" xmlns="http://www.w3.org/2000/svg"><path fill-rule="evenodd" clip-rule="evenodd" d="M72.594 15.297c-3.577 0-6.75 2.624-6.75 7.475 0 4.852 3.173 7.575 6.85 7.575 3.829 0 5.592-2.624 6.146-4.456l5.138 1.832c-1.159 3.762-4.836 7.871-11.284 7.871C65.491 35.594 60 30.1 60 22.772 60 15.347 65.49 10 72.543 10c6.6 0 10.226 4.06 11.233 7.92l-5.238 1.882c-.554-2.129-2.217-4.505-5.944-4.505zm14.293 13.02c0-4.307 3.224-6.683 7.405-7.277l6.297-.941c1.411-.198 1.814-.891 1.814-1.733 0-2.03-1.411-3.663-4.635-3.663-3.073 0-4.785 1.93-5.037 4.356l-5.34-1.188C87.844 13.713 91.673 10 97.718 10c7.556 0 10.427 4.208 10.427 9.01v11.98c0 2.178.252 3.614.302 3.862h-5.44c-.05-.149-.252-1.14-.252-3.07-1.158 1.832-3.576 3.812-7.556 3.812-5.138 0-8.312-3.465-8.312-7.277zm9.42 2.772c3.275 0 6.096-1.534 6.096-6.237v-1.09l-6.398.941c-1.813.297-3.274 1.287-3.274 3.267 0 1.634 1.26 3.12 3.576 3.12zm32.63-20.495v5.842a12.965 12.965 0 0 0-1.914-.149c-4.534 0-6.599 2.574-6.599 7.08v11.485h-5.843v-24.11h5.692v3.862c1.159-2.624 3.879-4.159 7.103-4.159.705 0 1.309.1 1.561.15zm2.255 25.594 5.39-1.386c.403 2.97 2.77 5.198 6.145 5.198 4.635 0 6.952-2.327 6.952-7.228v-2.524c-1.058 1.88-3.526 3.514-7.103 3.514-6.548 0-11.334-4.95-11.334-11.732 0-6.436 4.584-11.733 11.334-11.733 3.829 0 6.196 1.535 7.254 3.515v-3.07h5.642v21.832c0 6.436-3.375 12.426-12.594 12.426-6.498 0-11.031-3.96-11.686-8.812zm12.341-7.327c3.728 0 6.297-2.673 6.297-6.831 0-4.11-2.67-6.783-6.297-6.783-3.727 0-6.397 2.674-6.397 6.783 0 4.208 2.569 6.831 6.397 6.831zm29.255 1.584c3.627 0 6.851-2.623 6.851-7.673 0-5-3.224-7.574-6.851-7.574-3.576 0-6.851 2.574-6.851 7.574s3.275 7.674 6.851 7.674zm0-20.445c7.355 0 12.745 5.396 12.745 12.772 0 7.426-5.39 12.822-12.745 12.822-7.304 0-12.694-5.396-12.694-12.822 0-7.376 5.39-12.772 12.694-12.772zm16.511 21.139a4.07 4.07 0 0 1 4.08-4.06c2.267 0 4.131 1.832 4.131 4.06 0 2.227-1.864 4.01-4.131 4.01-2.267 0-4.08-1.783-4.08-4.01zm24.62-.694c3.627 0 6.851-2.623 6.851-7.673 0-5-3.224-7.574-6.851-7.574-3.576 0-6.851 2.574-6.851 7.574s3.275 7.674 6.851 7.674zm0-20.445c7.355 0 12.745 5.396 12.745 12.772 0 7.426-5.39 12.822-12.745 12.822-7.304 0-12.694-5.396-12.694-12.822 0-7.376 5.39-12.772 12.694-12.772zm23.613 10.94v13.912h-5.843v-24.11h5.692v3.218c1.612-2.772 4.534-3.91 7.254-3.91 5.994 0 8.866 4.257 8.866 9.554v15.248h-5.844V20.594c0-2.97-1.36-5.347-5.037-5.347-3.325 0-5.088 2.525-5.088 5.694zm26.535-.792h12.039c-.1-2.821-2.015-5.346-6.045-5.346-3.677 0-5.793 2.772-5.994 5.346zm12.694 6.288 4.937 1.534c-1.31 4.208-5.189 7.624-11.083 7.624-6.649 0-12.543-4.752-12.543-12.92 0-7.624 5.743-12.674 11.939-12.674C277.567 10 282 14.901 282 22.525c0 .94-.101 1.732-.151 1.831h-17.933c.151 3.664 3.073 6.288 6.699 6.288 3.527 0 5.34-1.832 6.146-4.208z" fill="#fff"/><path fill-rule="evenodd" clip-rule="evenodd" d="M9 46.013h26.998V16.875A6.875 6.875 0 0 0 29.123 10H0v27.005l9 9.008zM29.123 15c1.035 0 1.875.84 1.875 1.875v24.138H11.073L5 34.935V15h24.123z" fill="#E70A3E"/><path fill-rule="evenodd" clip-rule="evenodd" d="M36.997 0H10v8h5V5h19.925l6.073 6.078v19.935h-3v5h8V9.008l-9-9.008zm-8 36.013v-5H16.876A1.875 1.875 0 0 1 15 29.138V17h-5v12.138a6.875 6.875 0 0 0 6.875 6.875h12.123z" fill="#E70A3E"/></svg>